<svg xmlns="http://www.w3.org/2000/svg" width="1800" height="1100" viewBox="0 0 1800 1100">

    <rect x="0" y="0" width="1800" height="1100" fill="#ffffff"/>
    <text x="900.0" y="48" text-anchor="middle" font-family="Inter,Segoe UI,Roboto,Arial,sans-serif" font-size="30" fill="#0f172a" font-weight="700">Deployment patterns</text>
    <text x="900.0" y="82" text-anchor="middle" font-family="Inter,Segoe UI,Roboto,Arial,sans-serif" font-size="14" fill="#94a3b8">In-process · Sidecar/Daemon · Central service</text>
    <rect x="60" y="120" width="533.3333333333334" height="320" rx="18" ry="18" fill="#f8fafc" stroke="#cbd5e1" stroke-width="1.5"/><text x="76" y="150" text-anchor="start" font-family="Inter,Segoe UI,Roboto,Arial,sans-serif" font-size="14" fill="#0f172a" font-weight="700">In‑process (fastest)</text><rect x="46.666666666666686" y="202.0" width="220" height="56" rx="18" ry="18" fill="#dcfce7" stroke="#16a34a" stroke-width="1.8"/><text x="156.66666666666669" y="236" text-anchor="middle" font-family="Inter,Segoe UI,Roboto,Arial,sans-serif" font-size="16" fill="#0f172a" font-weight="600">Your service</text><line x1="266.6666666666667" y1="230" x2="406.6666666666667" y2="230" stroke="#64748b" stroke-width="2"/><polygon points="406.6666666666667,230 394.6666666666667,236.0 394.6666666666667,224.0" fill="#64748b"/><rect x="386.6666666666667" y="202.0" width="220" height="56" rx="18" ry="18" fill="#dcfce7" stroke="#16a34a" stroke-width="1.8"/><text x="496.6666666666667" y="236" text-anchor="middle" font-family="Inter,Segoe UI,Roboto,Arial,sans-serif" font-size="16" fill="#0f172a" font-weight="600">VSA library</text><line x1="496.6666666666667" y1="268" x2="496.6666666666667" y2="302" stroke="#64748b" stroke-width="2"/><polygon points="496.6666666666667,302 490.6666666666667,290.0 502.6666666666667,290.0" fill="#64748b"/><rect x="376.6666666666667" y="302.0" width="240" height="56" rx="18" ry="18" fill="#e0f2fe" stroke="#2563eb" stroke-width="1.8"/><text x="496.6666666666667" y="336" text-anchor="middle" font-family="Inter,Segoe UI,Roboto,Arial,sans-serif" font-size="16" fill="#0f172a" font-weight="600">Background worker</text><rect x="633.3333333333334" y="120" width="533.3333333333334" height="320" rx="18" ry="18" fill="#f8fafc" stroke="#cbd5e1" stroke-width="1.5"/><text x="649.3333333333334" y="150" text-anchor="start" font-family="Inter,Segoe UI,Roboto,Arial,sans-serif" font-size="14" fill="#0f172a" font-weight="700">Sidecar / Daemon (polyglot)</text><rect x="600.0" y="202.0" width="240" height="56" rx="18" ry="18" fill="#dcfce7" stroke="#16a34a" stroke-width="1.8"/><text x="720.0" y="236" text-anchor="middle" font-family="Inter,Segoe UI,Roboto,Arial,sans-serif" font-size="16" fill="#0f172a" font-weight="600">Apps on host/Pod</text><line x1="840.0" y1="230" x2="1020.0" y2="230" stroke="#64748b" stroke-width="2"/><polygon points="1020.0,230 1008.0,236.0 1008.0,224.0" fill="#64748b"/><text x="920.0" y="216" text-anchor="start" font-family="Inter,Segoe UI,Roboto,Arial,sans-serif" font-size="12" fill="#94a3b8" font-weight="500">local gRPC / UDS</text><rect x="1010.0" y="202.0" width="220" height="56" rx="18" ry="18" fill="#e0f2fe" stroke="#2563eb" stroke-width="1.8"/><text x="1120.0" y="236" text-anchor="middle" font-family="Inter,Segoe UI,Roboto,Arial,sans-serif" font-size="16" fill="#0f172a" font-weight="600">VSA sidecar</text><line x1="1120.0" y1="268" x2="1120.0" y2="302" stroke="#64748b" stroke-width="2"/><polygon points="1120.0,302 1114.0,290.0 1126.0,290.0" fill="#64748b"/><rect x="1000.0" y="302.0" width="240" height="56" rx="18" ry="18" fill="#e0f2fe" stroke="#2563eb" stroke-width="1.8"/><text x="1120.0" y="336" text-anchor="middle" font-family="Inter,Segoe UI,Roboto,Arial,sans-serif" font-size="16" fill="#0f172a" font-weight="600">Background worker</text><rect x="1206.6666666666667" y="120" width="533.3333333333334" height="320" rx="18" ry="18" fill="#f8fafc" stroke="#cbd5e1" stroke-width="1.5"/><text x="1222.6666666666667" y="150" text-anchor="start" font-family="Inter,Segoe UI,Roboto,Arial,sans-serif" font-size="14" fill="#0f172a" font-weight="700">Central service</text><rect x="1173.3333333333335" y="202.0" width="240" height="56" rx="18" ry="18" fill="#fff7ed" stroke="#ea580c" stroke-width="1.8"/><text x="1293.3333333333335" y="236" text-anchor="middle" font-family="Inter,Segoe UI,Roboto,Arial,sans-serif" font-size="16" fill="#0f172a" font-weight="600">API Gateway</text><line x1="1413.3333333333335" y1="230" x2="1593.3333333333335" y2="230" stroke="#64748b" stroke-width="2"/><polygon points="1593.3333333333335,230 1581.3333333333335,236.0 1581.3333333333335,224.0" fill="#64748b"/><text x="1508.3333333333335" y="216" text-anchor="start" font-family="Inter,Segoe UI,Roboto,Arial,sans-serif" font-size="12" fill="#94a3b8" font-weight="500">network hop</text><rect x="1573.3333333333335" y="202.0" width="240" height="56" rx="18" ry="18" fill="#e0f2fe" stroke="#2563eb" stroke-width="1.8"/><text x="1693.3333333333335" y="236" text-anchor="middle" font-family="Inter,Segoe UI,Roboto,Arial,sans-serif" font-size="16" fill="#0f172a" font-weight="600">Rate‑limit service</text><line x1="1693.3333333333335" y1="268" x2="1693.3333333333335" y2="302" stroke="#64748b" stroke-width="2"/><polygon points="1693.3333333333335,302 1687.3333333333335,290.0 1699.3333333333335,290.0" fill="#64748b"/><rect x="1573.3333333333335" y="302.0" width="240" height="56" rx="18" ry="18" fill="#e0f2fe" stroke="#2563eb" stroke-width="1.8"/><text x="1693.3333333333335" y="336" text-anchor="middle" font-family="Inter,Segoe UI,Roboto,Arial,sans-serif" font-size="16" fill="#0f172a" font-weight="600">Background worker</text><rect x="560.0" y="671.0" width="240" height="58" rx="18" ry="18" fill="#fff7ed" stroke="#ea580c" stroke-width="1.8"/><text x="680.0" y="706" text-anchor="middle" font-family="Inter,Segoe UI,Roboto,Arial,sans-serif" font-size="16" fill="#0f172a" font-weight="600">Persister</text><rect x="1030.0" y="671.0" width="300" height="58" rx="18" ry="18" fill="#f1f5f9" stroke="#94a3b8" stroke-width="1.8"/><text x="1180.0" y="706" text-anchor="middle" font-family="Inter,Segoe UI,Roboto,Arial,sans-serif" font-size="16" fill="#0f172a" font-weight="600">DB / KV / Durable log</text><line x1="496.6666666666667" y1="358" x2="496.6666666666667" y2="560" stroke="#64748b" stroke-width="2"/><polygon points="496.6666666666667,560 490.6666666666667,548.0 502.6666666666667,548.0" fill="#64748b"/><line x1="496.6666666666667" y1="560" x2="560.0" y2="660" stroke="#64748b" stroke-width="2"/><polygon points="560.0,660 548.5104605724624,653.0724835804554 558.6482894791133,646.6518586062432" fill="#64748b"/><line x1="1120.0" y1="358" x2="1120.0" y2="560" stroke="#64748b" stroke-width="2"/><polygon points="1120.0,560 1114.0,548.0 1126.0,548.0" fill="#64748b"/><line x1="1120.0" y1="560" x2="680.0" y2="660" stroke="#64748b" stroke-width="2"/><polygon points="680.0,660 690.3718676479637,651.4897496221836 693.0313208910313,663.1913438916811" fill="#64748b"/><line x1="1693.3333333333335" y1="358" x2="1693.3333333333335" y2="560" stroke="#64748b" stroke-width="2"/><polygon points="1693.3333333333335,560 1687.3333333333335,548.0 1699.3333333333335,548.0" fill="#64748b"/><line x1="1693.3333333333335" y1="560" x2="800.0" y2="660" stroke="#64748b" stroke-width="2"/><polygon points="800.0,660 811.2580426122197,652.7022964885216 812.5929883765145,664.6278119828887" fill="#64748b"/><line x1="820.0" y1="700" x2="1010.0" y2="700" stroke="#64748b" stroke-width="2"/><polygon points="1010.0,700 998.0,706.0 998.0,694.0" fill="#64748b"/><text x="1780" y="1080" text-anchor="end" font-family="Inter,Segoe UI,Roboto,Arial,sans-serif" font-size="12" fill="#94a3b8" font-weight="400">© Styled SVG export</text>
</svg>